<svg width="244" height="205" viewBox="0 0 244 205" fill="none" xmlns="http://www.w3.org/2000/svg">
<path d="M239 55.8696L123.936 5.52288C123.173 5.18937 122.307 5.18737 121.543 5.51734L6.81016 55.0875C5.71143 55.5622 5 56.6446 5 57.8414V83.25C5 84.9069 6.34315 86.25 8 86.25H236C237.657 86.25 239 87.5931 239 89.25V121.402C239 123.059 237.657 124.402 236 124.402H7.99999C6.34314 124.402 5 125.745 5 127.402V158.848C5 160.505 6.34315 161.848 8 161.848H236C237.657 161.848 239 163.191 239 164.848V197C239 198.657 237.657 200 236 200H5" stroke="#4B7BEC" stroke-width="10"/>
</svg>
